<svg xmlns="http://www.w3.org/2000/svg" xmlns:xlink="http://www.w3.org/1999/xlink" width="224" zoomAndPan="magnify" viewBox="0 0 168 62.999997" height="84" preserveAspectRatio="xMidYMid meet" version="1.0"><defs><g/><clipPath id="3a3c42eccb"><path d="M 137 14 L 167.65625 14 L 167.65625 41 L 137 41 Z M 137 14 " clip-rule="nonzero"/></clipPath><clipPath id="72e2d0c121"><path d="M 146 14 L 167.65625 14 L 167.65625 37 L 146 37 Z M 146 14 " clip-rule="nonzero"/></clipPath><clipPath id="f479a7198d"><path d="M 131.65625 39 L 135 39 L 135 42 L 131.65625 42 Z M 131.65625 39 " clip-rule="nonzero"/></clipPath><clipPath id="867932a58b"><path d="M 135 42 L 145 42 L 145 46.996094 L 135 46.996094 Z M 135 42 " clip-rule="nonzero"/></clipPath><clipPath id="d958eb89f4"><path d="M 146 43 L 150 43 L 150 46.996094 L 146 46.996094 Z M 146 43 " clip-rule="nonzero"/></clipPath></defs><path fill="#e9f5ff" d="M 155.34375 36.699219 L 150.863281 32.207031 C 150.625 31.972656 150.355469 31.917969 150.046875 32.046875 C 149.738281 32.171875 149.585938 32.402344 149.585938 32.738281 L 149.585938 43.203125 C 149.585938 43.363281 149.632812 43.511719 149.726562 43.640625 C 149.820312 43.769531 149.945312 43.859375 150.097656 43.910156 C 150.171875 43.9375 150.253906 43.949219 150.332031 43.949219 C 150.582031 43.949219 150.78125 43.851562 150.929688 43.652344 L 155.414062 37.675781 C 155.523438 37.527344 155.574219 37.359375 155.5625 37.175781 C 155.546875 36.988281 155.476562 36.832031 155.34375 36.699219 Z M 155.34375 36.699219 " fill-opacity="1" fill-rule="nonzero"/><path fill="#95cfff" d="M 152.0625 35.023438 L 147.582031 33.53125 C 147.289062 33.433594 147.035156 33.492188 146.816406 33.710938 C 146.597656 33.925781 146.539062 34.183594 146.632812 34.472656 L 149.625 43.441406 C 149.675781 43.59375 149.765625 43.714844 149.894531 43.808594 C 150.027344 43.902344 150.171875 43.949219 150.332031 43.949219 L 150.378906 43.949219 C 150.546875 43.941406 150.695312 43.878906 150.824219 43.769531 C 150.949219 43.65625 151.03125 43.519531 151.066406 43.351562 L 152.558594 35.882812 C 152.597656 35.695312 152.570312 35.523438 152.472656 35.359375 C 152.378906 35.195312 152.242188 35.082031 152.0625 35.023438 Z M 152.0625 35.023438 " fill-opacity="1" fill-rule="nonzero"/><g clip-path="url(#3a3c42eccb)"><path fill="#e9f5ff" d="M 167.195312 14.207031 C 166.9375 14.027344 166.667969 14.015625 166.394531 14.171875 L 138.003906 30.609375 C 137.726562 30.773438 137.601562 31.011719 137.636719 31.332031 C 137.667969 31.652344 137.835938 31.863281 138.144531 31.964844 L 151.5625 36.4375 L 161.992188 40.910156 C 162.097656 40.953125 162.207031 40.976562 162.320312 40.96875 C 162.433594 40.964844 162.539062 40.933594 162.640625 40.878906 C 162.742188 40.824219 162.824219 40.753906 162.890625 40.660156 C 162.957031 40.566406 163 40.464844 163.019531 40.351562 L 167.503906 14.949219 C 167.558594 14.636719 167.457031 14.390625 167.195312 14.207031 Z M 167.195312 14.207031 " fill-opacity="1" fill-rule="nonzero"/></g><g clip-path="url(#72e2d0c121)"><path fill="#95cfff" d="M 167.378906 15.253906 C 167.492188 15.09375 167.535156 14.917969 167.511719 14.726562 C 167.488281 14.53125 167.402344 14.371094 167.253906 14.246094 C 167.105469 14.121094 166.933594 14.0625 166.738281 14.070312 C 166.542969 14.078125 166.378906 14.152344 166.242188 14.292969 L 146.757812 34.839844 L 152.378906 36.78125 Z M 167.378906 15.253906 " fill-opacity="1" fill-rule="nonzero"/></g><g clip-path="url(#f479a7198d)"><path fill="#95cfff" d="M 133.480469 42 C 133.285156 42 133.117188 41.933594 132.972656 41.804688 C 132.601562 41.460938 132.234375 41.109375 131.875 40.746094 C 131.726562 40.601562 131.65625 40.425781 131.65625 40.21875 C 131.65625 40.011719 131.726562 39.835938 131.875 39.691406 C 132.019531 39.542969 132.195312 39.472656 132.402344 39.472656 C 132.609375 39.472656 132.785156 39.542969 132.929688 39.6875 C 133.277344 40.035156 133.628906 40.375 133.988281 40.703125 C 134.238281 40.933594 134.300781 41.207031 134.175781 41.527344 C 134.054688 41.84375 133.820312 42 133.480469 42 Z M 133.480469 42 " fill-opacity="1" fill-rule="nonzero"/></g><g clip-path="url(#867932a58b)"><path fill="#95cfff" d="M 143.660156 46.925781 C 142.9375 46.921875 142.222656 46.847656 141.515625 46.703125 C 141.308594 46.667969 141.140625 46.5625 141.023438 46.386719 C 140.902344 46.214844 140.863281 46.023438 140.90625 45.816406 C 140.949219 45.605469 141.058594 45.445312 141.238281 45.332031 C 141.417969 45.21875 141.609375 45.1875 141.816406 45.238281 C 142.425781 45.363281 143.042969 45.429688 143.664062 45.429688 L 144.003906 45.429688 C 144.214844 45.410156 144.398438 45.472656 144.554688 45.617188 C 144.707031 45.757812 144.785156 45.9375 144.78125 46.148438 C 144.789062 46.355469 144.722656 46.535156 144.582031 46.683594 C 144.441406 46.835938 144.265625 46.914062 144.0625 46.921875 L 143.671875 46.921875 Z M 138.304688 45.496094 C 138.183594 45.496094 138.070312 45.464844 137.960938 45.410156 C 137.226562 45.027344 136.519531 44.597656 135.839844 44.121094 C 135.675781 44 135.578125 43.839844 135.546875 43.640625 C 135.515625 43.445312 135.554688 43.261719 135.671875 43.09375 C 135.785156 42.929688 135.941406 42.828125 136.140625 42.789062 C 136.335938 42.75 136.519531 42.785156 136.691406 42.894531 C 137.316406 43.335938 137.96875 43.734375 138.648438 44.089844 C 138.800781 44.167969 138.914062 44.285156 138.984375 44.445312 C 139.054688 44.601562 139.070312 44.761719 139.03125 44.929688 C 138.988281 45.097656 138.902344 45.234375 138.765625 45.339844 C 138.628906 45.445312 138.476562 45.5 138.304688 45.5 Z M 138.304688 45.496094 " fill-opacity="1" fill-rule="nonzero"/></g><g clip-path="url(#d958eb89f4)"><path fill="#95cfff" d="M 147.5 46.125 C 147.324219 46.125 147.164062 46.070312 147.027344 45.957031 C 146.886719 45.847656 146.800781 45.703125 146.765625 45.527344 C 146.726562 45.355469 146.75 45.1875 146.832031 45.03125 C 146.914062 44.871094 147.039062 44.757812 147.203125 44.6875 C 147.632812 44.503906 148.050781 44.292969 148.453125 44.054688 C 148.628906 43.957031 148.816406 43.933594 149.011719 43.988281 C 149.207031 44.039062 149.355469 44.152344 149.460938 44.328125 C 149.5625 44.503906 149.589844 44.6875 149.542969 44.886719 C 149.496094 45.082031 149.382812 45.234375 149.210938 45.34375 C 148.753906 45.613281 148.28125 45.855469 147.789062 46.0625 C 147.699219 46.101562 147.601562 46.121094 147.5 46.125 Z M 147.5 46.125 " fill-opacity="1" fill-rule="nonzero"/></g><g fill="#e9f5ff" fill-opacity="1"><g transform="translate(18.982971, 41.744995)"><g><path d="M 5.015625 0.1875 L 5.015625 -18.984375 L 0.421875 -18.984375 L 0.75 -22.5 L 13.953125 -22.5 L 13.59375 -18.984375 L 9.390625 -18.984375 L 9.390625 -0.1875 Z M 5.015625 0.1875 "/></g></g></g><g fill="#e9f5ff" fill-opacity="1"><g transform="translate(32.93296, 41.744995)"><g><path d="M 7.203125 0.390625 C 5.203125 0.390625 3.671875 -0.398438 2.609375 -1.984375 C 1.546875 -3.578125 1.015625 -5.695312 1.015625 -8.34375 C 1.015625 -11.019531 1.554688 -13.144531 2.640625 -14.71875 C 3.722656 -16.300781 5.289062 -17.09375 7.34375 -17.09375 C 9.3125 -17.09375 10.8125 -16.300781 11.84375 -14.71875 C 12.882812 -13.144531 13.40625 -11.019531 13.40625 -8.34375 C 13.40625 -8.175781 13.375 -8.054688 13.3125 -7.984375 C 13.257812 -7.921875 13.234375 -7.878906 13.234375 -7.859375 L 5.21875 -7.859375 C 5.21875 -6.554688 5.382812 -5.367188 5.71875 -4.296875 C 6.0625 -3.234375 6.585938 -2.703125 7.296875 -2.703125 C 8.066406 -2.703125 8.640625 -3.148438 9.015625 -4.046875 C 9.398438 -4.953125 9.601562 -5.421875 9.625 -5.453125 L 12.8125 -4.265625 C 12.394531 -2.816406 11.722656 -1.675781 10.796875 -0.84375 C 9.878906 -0.0195312 8.679688 0.390625 7.203125 0.390625 Z M 9.265625 -10.296875 C 9.265625 -11.492188 9.101562 -12.441406 8.78125 -13.140625 C 8.46875 -13.835938 7.972656 -14.1875 7.296875 -14.1875 C 6.953125 -14.1875 6.617188 -14.015625 6.296875 -13.671875 C 5.972656 -13.335938 5.710938 -12.867188 5.515625 -12.265625 C 5.316406 -11.671875 5.21875 -11.015625 5.21875 -10.296875 Z M 9.265625 -10.296875 "/></g></g></g><g fill="#e9f5ff" fill-opacity="1"><g transform="translate(46.702945, 41.744995)"><g><path d="M 1.828125 -16.53125 L 5.9375 -16.890625 L 5.9375 -14.734375 C 6.5625 -15.453125 7.273438 -16.023438 8.078125 -16.453125 C 8.890625 -16.878906 9.695312 -17.09375 10.5 -17.09375 C 11.757812 -17.09375 12.585938 -16.210938 12.984375 -14.453125 C 14.304688 -16.210938 15.789062 -17.09375 17.4375 -17.09375 C 18.507812 -17.09375 19.273438 -16.660156 19.734375 -15.796875 C 20.203125 -14.941406 20.4375 -13.664062 20.4375 -11.96875 L 20.4375 -0.1875 L 16.296875 0.1875 L 16.296875 -11.765625 C 16.296875 -12.296875 16.191406 -12.71875 15.984375 -13.03125 C 15.785156 -13.34375 15.554688 -13.5 15.296875 -13.5 C 14.878906 -13.5 14.484375 -13.382812 14.109375 -13.15625 C 13.742188 -12.925781 13.429688 -12.640625 13.171875 -12.296875 L 13.171875 -0.1875 L 9.0625 0.1875 L 9.0625 -11.796875 C 9.0625 -12.347656 8.972656 -12.769531 8.796875 -13.0625 C 8.628906 -13.351562 8.4375 -13.5 8.21875 -13.5 C 7.820312 -13.5 7.410156 -13.378906 6.984375 -13.140625 C 6.566406 -12.898438 6.21875 -12.617188 5.9375 -12.296875 L 5.9375 -0.1875 L 1.828125 0.1875 Z M 1.828125 -16.53125 "/></g></g></g><g fill="#e9f5ff" fill-opacity="1"><g transform="translate(68.452915, 41.744995)"><g><path d="M 1.828125 -16.53125 L 6.03125 -16.890625 L 6.03125 -15.234375 C 6.6875 -15.898438 7.300781 -16.375 7.875 -16.65625 C 8.445312 -16.945312 9.113281 -17.09375 9.875 -17.09375 C 10.914062 -17.09375 11.738281 -16.800781 12.34375 -16.21875 C 12.957031 -15.644531 13.394531 -14.742188 13.65625 -13.515625 C 13.925781 -12.285156 14.0625 -10.640625 14.0625 -8.578125 C 14.0625 -5.753906 13.738281 -3.550781 13.09375 -1.96875 C 12.445312 -0.394531 11.203125 0.390625 9.359375 0.390625 C 8.515625 0.390625 7.84375 0.234375 7.34375 -0.078125 C 6.84375 -0.398438 6.40625 -0.851562 6.03125 -1.4375 L 6.03125 4.40625 L 1.828125 5.25 Z M 7.859375 -2.8125 C 8.515625 -2.8125 9.007812 -3.203125 9.34375 -3.984375 C 9.675781 -4.765625 9.84375 -6.238281 9.84375 -8.40625 C 9.84375 -10.457031 9.675781 -11.910156 9.34375 -12.765625 C 9.007812 -13.628906 8.503906 -14.0625 7.828125 -14.0625 C 7.128906 -14.0625 6.53125 -13.675781 6.03125 -12.90625 L 6.03125 -4.171875 C 6.425781 -3.265625 7.035156 -2.8125 7.859375 -2.8125 Z M 7.859375 -2.8125 "/></g></g></g><g fill="#e9f5ff" fill-opacity="1"><g transform="translate(83.242903, 41.744995)"><g><path d="M 17.15625 0.1875 L 17.15625 -16.703125 L 12.953125 0 L 10.265625 0 L 5.734375 -16.765625 L 5.734375 -0.1875 L 2.09375 0 L 2.09375 -22.296875 L 8.546875 -22.46875 L 12.265625 -8.546875 L 15.84375 -21.953125 L 21.71875 -22.3125 L 21.71875 -0.1875 Z M 17.15625 0.1875 "/></g></g></g><g fill="#e9f5ff" fill-opacity="1"><g transform="translate(106.702877, 41.744995)"><g><path d="M 4.59375 0.390625 C 3.875 0.390625 3.222656 0.164062 2.640625 -0.28125 C 2.054688 -0.726562 1.601562 -1.335938 1.28125 -2.109375 C 0.96875 -2.878906 0.8125 -3.742188 0.8125 -4.703125 C 0.8125 -6.890625 1.554688 -8.425781 3.046875 -9.3125 C 4.535156 -10.207031 6.269531 -10.710938 8.25 -10.828125 C 8.25 -11.910156 8.175781 -12.710938 8.03125 -13.234375 C 7.894531 -13.753906 7.554688 -14.015625 7.015625 -14.015625 C 6.554688 -14.015625 6.207031 -13.832031 5.96875 -13.46875 C 5.726562 -13.113281 5.578125 -12.65625 5.515625 -12.09375 L 1.40625 -12.8125 C 1.601562 -14.351562 2.234375 -15.453125 3.296875 -16.109375 C 4.359375 -16.765625 5.597656 -17.09375 7.015625 -17.09375 C 8.835938 -17.09375 10.203125 -16.613281 11.109375 -15.65625 C 12.023438 -14.695312 12.484375 -13.445312 12.484375 -11.90625 L 12.484375 -3.1875 C 12.484375 -2.238281 12.632812 -1.238281 12.9375 -0.1875 L 8.8125 0.1875 L 8.34375 -1.890625 C 7.976562 -1.253906 7.445312 -0.710938 6.75 -0.265625 C 6.050781 0.171875 5.332031 0.390625 4.59375 0.390625 Z M 6.546875 -2.609375 C 6.878906 -2.609375 7.160156 -2.6875 7.390625 -2.84375 C 7.617188 -3.007812 7.90625 -3.269531 8.25 -3.625 L 8.25 -8.3125 C 7.25 -8.3125 6.445312 -8.039062 5.84375 -7.5 C 5.25 -6.957031 4.953125 -6.117188 4.953125 -4.984375 C 4.953125 -4.222656 5.085938 -3.632812 5.359375 -3.21875 C 5.628906 -2.8125 6.023438 -2.609375 6.546875 -2.609375 Z M 6.546875 -2.609375 "/></g></g></g><g fill="#e9f5ff" fill-opacity="1"><g transform="translate(120.472864, 41.744995)"><g><path d="M 1.859375 -19.046875 L 1.859375 -23.40625 L 6.0625 -23.703125 L 6.0625 -19.234375 Z M 1.828125 0.1875 L 1.828125 -16.53125 L 6.03125 -16.890625 L 6.03125 -0.1875 Z M 1.828125 0.1875 "/></g></g></g><g fill="#e9f5ff" fill-opacity="1"><g transform="translate(128.002859, 41.744995)"><g><path d="M 1.859375 0.1875 L 1.859375 -21.953125 L 6.0625 -22.5 L 6.0625 -0.1875 Z M 1.859375 0.1875 "/></g></g></g></svg>
